<svg width="377" height="64" viewBox="0 0 377 64" fill="none" xmlns="http://www.w3.org/2000/svg">
    <path
        d="M364.26 19.7905c0 3.5066 2.831 6.3913 6.353 6.3913 3.521 0 6.387-2.8847 6.387-6.3913 0-3.5239-2.866-6.4087-6.387-6.4087-3.522 0-6.353 2.8848-6.353 6.4087zm1.467 0c0-2.833 2.141-5.044 4.886-5.044 2.744 0 4.885 2.211 4.885 5.044 0 2.8156-2.141 5.0267-4.885 5.0267-2.745 0-4.886-2.2111-4.886-5.0267zm5.921 3.4029h1.813l-1.381-2.6601c.794-.3455 1.329-1.0883 1.329-2.0038 0-1.2438-1.036-2.2456-2.365-2.2456h-2.727v6.9095h1.64v-2.401h.5l1.191 2.401zm-1.691-3.7484v-1.8138h.794c.621 0 1.001.3455 1.001.9155 0 .5528-.38.8983-1.001.8983h-.794z"
        fill="#222E3A" />
    <path
        d="M355.593 18.6182H351.3v8.1454h-4.993v4.1032h4.593V42.708c0 3.8193 2.918 7.3283 6.69 7.3283h3.195v-4.1858h-1.847c-1.348 0-3.345-.7247-3.345-3.1425V30.8668h5.192v-4.1032h-5.192v-8.1454zM343.991 26.7637h-1.448c-2.338 0-5.233.8566-6.903 4.3785v-4.3785h-4.39v23.2727h4.486V38.5666c0-5.0448 2.529-7.7302 6.298-7.7302h1.957v-4.0727zM312.608 36.1456c.181-2.8237 2.352-5.6018 5.925-5.6018 3.844 0 5.879 2.4593 5.969 5.6018h-11.894zm12.527 5.693c-.814 2.4593-2.578 4.4177-6.105 4.4177-3.663 0-6.467-2.7326-6.557-6.6494h16.371c.045-.2732.09-.8197.09-1.3663 0-6.8315-3.754-11.4769-10.447-11.4769-5.472 0-10.401 4.691-10.401 11.568 0 7.4236 5.11 11.7047 10.944 11.7047 5.065 0 8.547-3.0514 9.768-6.9226l-3.663-1.2752zM305.77 50.0364V13.3818h-4.633v36.6546h4.633zM293.38 50.0364h5.44l-14.473-36.6546h-5.8l-14.473 36.6546h5.389L273.312 39.8h16.116l3.952 10.2364zm-12.061-31.3813l6.313 16.4403h-12.524l6.211-16.4403z"
        fill="#178A9E" />
    <path
        d="M256.937 26.8498h-8.171l-7.982 8.6243V13.3818h-6.245v36.6546h6.245v-6.1266l2.583-2.7333 6.104 8.8599h7.653l-9.437-13.4313 9.25-9.7553zM232.223 26.7846c-.464-.0471-.913 0-1.422 0-1.946 0-5.111.4707-6.5 3.5301v-3.5301h-5.977v23.2518h6.162V39.446c0-4.9893 2.592-6.8424 5.743-6.8424h1.994v-5.819zM194.581 43.2649c0 3.523 2.982 6.7715 7.874 6.7715 3.402 0 5.592-.9908 6.756-2.7751l.21 2.7751h5.428V35.3196c0-4.5296-2.702-8.5559-9.971-8.5559-6.15 0-9.459 3.889-9.831 7.412l5.498 1.1439c.186-1.9674 1.677-3.6603 4.38-3.6603 2.609 0 3.867 1.3268 3.867 2.9282 0 .7778-.419.8535-1.724 1.0365l-5.638.8236c-3.821.549-6.849 2.791-6.849 6.8173zm9.179 2.2419c-2.004 0-2.982-1.2811-2.982-2.608 0-1.7386 1.258-2.6079 2.842-2.8367l5.172-.7778v1.5715c0 3.9805-2.423 4.651-5.032 4.651zM177.592 36.4166c.139-2.5449 1.671-4.5242 4.272-4.5242 2.971 0 4.225 2.0265 4.225 4.6185v13.5255h6.175V35.4269c0-5.0897-2.693-8.608-8.497-8.608-2.182 0-4.689.1722-6.175 1.9631V13.3818h-6.176v36.6546h6.176V36.4166zM150.568 43.344c.281 2.5094 2.621 6.6924 9.547 6.6924 6.037 0 8.985-3.5556 8.985-7.1405 0-3.2265-2.293-5.8704-6.832-6.7666l-3.276-.6722c-1.264-.224-2.106-.8962-2.106-1.9717 0-1.2547 1.31-2.1958 2.948-2.1958 2.621 0 3.603 1.6581 3.791 2.9576l5.194-1.1203c-.281-2.375-2.48-6.3632-9.032-6.3632-4.96 0-8.61 3.2712-8.61 7.2146 0 3.092 2.012 5.6463 6.458 6.5873l3.041.6722c1.779.3585 2.481 1.1651 2.481 2.151 0 1.1651-.983 2.1958-3.042 2.1958-2.714 0-4.071-1.6133-4.212-3.3609l-5.335 1.1203z"
        fill="#222E3A" />
    <path fill-rule="evenodd" clip-rule="evenodd"
        d="M144.299 22.6486c-.001-.0317-.001-.0635-.001-.0953 0-2.0887 1.685-3.7819 3.764-3.7819h1.348v-5.3896h-3.039c-4.701 0-8.242 3.5496-8.242 8.6127v4.7924h-3.776v5.8185h3.776v17.431h6.17v-17.431h5.111v-5.8185h-5.111v-4.1165-.0218z"
        fill="#222E3A" />
    <path
        d="M132.037 26.7846c-.463-.0471-.913 0-1.422 0-1.946 0-5.11.4707-6.5 3.5301v-3.5301h-5.977v23.2518h6.162V39.446c0-4.9893 2.592-6.8424 5.743-6.8424h1.994v-5.819zM109.023 50.0364h5.641V26.7637h-6.149v13.5679c0 2.6853-1.662 3.9573-4.39 3.9573-2.866 0-4.1604-2.0729-4.1604-4.664V26.7637h-6.1489v14.1332c0 5.0409 3.1438 9.1395 8.6453 9.1395 2.404 0 5.129-.3298 6.377-2.4969l.185 2.4969zM91.0041 22.3634c-.7922-3.905-4.0602-8.9816-12.5768-8.9816-6.635 0-12.2302 4.6861-12.2302 10.8365 0 5.223 3.6146 8.7863 9.2098 9.909l4.902.9763c2.7233.5369 4.2583 2.6807 4.2583 4.6821 0 2.4406-2.0301 4.2467-5.6942 4.2467-4.9515 0-7.3778-3.0752-7.6749-6.4921l-6.3379 1.6596c.5447 4.9301 4.6544 10.8365 13.9632 10.8365 8.17 0 12.6759-5.3694 12.6759-10.69 0-4.8813-3.4166-9.5634-9.804-10.7838l-4.902-.9274c-2.5748-.4881-3.8126-2.0013-3.8126-3.905 0-2.2942 2.1786-4.3932 5.4961-4.3932 4.4564 0 6.0408 2.9776 6.3875 4.8813l6.1398-1.8549z"
        fill="#222E3A" />
    <path
        d="M38.7176 0c1.6217.0420299 3.1528.0725821 4.3884.289269 2.5871.651449 5.0244 2.046501 6.2914 4.838791 0 0 .2847.49654.4919 1.92755.2072 1.43101.5218 5.40179.5218 5.40179.434 6.5945.481 13.4532.5505 19.9163-.1119 2.5298-.8248 4.9065-1.9057 7.0792-2.6427 5.3119-7.4854 9.4049-11.1268 11.5346-9.0125 4.5364-17.7282 8.5756-25.106 11.8297-7.81023 2.8935-11.35532-.0109-12.531077-3.4586-.2377114-.9383-.3201339-1.9043-.28381956-2.7967 0 0 .07185766-2.1385.61217756-5.651C1.1607 47.3984 5.14244 22.1072 9.41906 9.14221 10.4986 6.14679 14.5223.522293 24.0946 0h14.623z"
        fill="#178A9E" />
    <path
        d="M37.1202 11.8345c.6949 0 1.2583.5577 1.2583 1.2457v4.3601c0 .688-.5634 1.2458-1.2583 1.2458h-.6292c-4.1696 0-7.5498 3.3464-7.5498 7.4744v6.6959c0 7.912-6.4787 14.326-14.4706 14.326h-.6292c-.6949 0-1.2583-.5577-1.2583-1.2457v-4.3601c0-.688.5634-1.2458 1.2583-1.2458h.6292c4.1697 0 7.5499-3.3464 7.5499-7.4744v-6.6959c0-7.912 6.4787-14.326 14.4705-14.326h.6292z"
        fill="#fff" /></svg>
